<svg width="1920" height="905" viewBox="0 0 1920 905" fill="none" xmlns="http://www.w3.org/2000/svg">
<ellipse cx="1009" cy="534.564" rx="24" ry="23.9788" fill="url(#paint0_linear_83_151)"/>
<path d="M1151.87 662.519C1148.2 661.268 1144.64 659.708 1141.23 657.854C1109.92 640.839 1099.8 606.235 1089.09 569.601C1081.55 543.858 1073.77 517.233 1057.95 497.161C1042.77 477.887 1020.85 465.655 999.655 453.799C988.108 447.357 976.169 440.693 965.33 432.933C932.605 409.501 910.571 364.586 932.036 332.897C948.517 308.567 981.601 305.48 999.851 305.804C1007.13 305.932 1014.55 306.463 1021.73 306.977C1038.95 308.21 1056.76 309.488 1073.7 305.218C1097.91 299.106 1118 282.386 1137.42 266.218C1148.47 256.979 1159.9 247.507 1172.08 239.89C1208.39 217.193 1256.22 212.531 1300.04 227.423C1336.84 239.931 1366.4 264.309 1383.28 296.07C1390.63 309.938 1396.09 325.312 1401.36 340.193C1411.36 368.416 1420.8 395.076 1442.26 413.266C1453.65 422.928 1467.64 429.127 1481.16 435.125C1487.77 438.063 1494.61 441.095 1501.11 444.513C1515.67 452.165 1540.34 469.019 1542.07 495.925C1544.19 528.923 1508.17 554.383 1473.19 557.461C1458.86 558.719 1444.25 557.678 1430.14 556.632C1411.76 555.314 1392.75 553.952 1374.43 557.747C1340.58 564.789 1312.71 588.34 1285.74 611.12C1278.66 617.108 1271.33 623.276 1264.02 629.073C1244.97 644.173 1195.98 677.512 1151.87 662.519ZM1299.23 229.682C1256.06 215.009 1208.95 219.582 1173.22 241.917C1161.17 249.451 1149.81 258.913 1138.82 268.057C1119.2 284.393 1098.91 301.29 1074.17 307.523C1056.88 311.878 1038.9 310.596 1021.49 309.349C1014.34 308.837 1006.96 308.309 999.752 308.19C981.964 307.877 949.766 310.844 933.908 334.248C913.267 364.747 934.846 408.232 966.624 431.01C977.355 438.717 989.246 445.333 1000.74 451.741C1022.14 463.681 1044.26 476.024 1059.73 495.653C1075.82 516.089 1083.68 542.932 1091.27 568.898C1101.85 605.054 1111.83 639.222 1142.31 655.769C1145.62 657.567 1149.07 659.08 1152.63 660.291C1195.69 674.926 1243.87 642.093 1262.59 627.294C1269.86 621.548 1277.18 615.363 1284.25 609.387C1311.44 586.422 1339.55 562.667 1373.97 555.513C1392.57 551.644 1411.74 553.018 1430.28 554.35C1444.32 555.353 1458.83 556.396 1472.99 555.151C1506.86 552.175 1541.75 527.762 1539.72 496.166C1538 469.444 1511.35 452.648 1499.98 446.664C1493.55 443.284 1486.74 440.265 1480.16 437.346C1466.5 431.28 1452.37 425.009 1440.72 415.139C1418.79 396.543 1408.8 368.349 1399.14 341.071C1393.89 326.294 1388.47 310.967 1381.2 297.263C1364.6 265.989 1335.49 242.012 1299.23 229.69L1299.23 229.682Z" fill="#6A1AB7"/>
<g filter="url(#filter0_f_83_151)">
<ellipse cx="139.458" cy="270.048" rx="264.458" ry="163.634" fill="url(#paint1_radial_83_151)" fill-opacity="0.24"/>
</g>
<g filter="url(#filter1_f_83_151)">
<ellipse cx="1389.79" cy="656.634" rx="157.791" ry="97.6336" transform="rotate(-180 1389.79 656.634)" fill="url(#paint2_linear_83_151)" fill-opacity="0.3"/>
</g>
<g filter="url(#filter2_f_83_151)">
<ellipse rx="88.9941" ry="55.0654" transform="matrix(-1 0 0 1 1706.01 96.0654)" fill="url(#paint3_linear_83_151)" fill-opacity="0.7"/>
</g>
<ellipse cx="1496" cy="320.97" rx="34" ry="33.97" fill="url(#paint4_linear_83_151)"/>
<ellipse cx="569" cy="582.521" rx="11" ry="10.9903" fill="url(#paint5_linear_83_151)"/>
<ellipse cx="1412" cy="554.548" rx="16" ry="15.9859" fill="url(#paint6_linear_83_151)"/>
<ellipse cx="1078" cy="264.802" rx="8" ry="7.99294" fill="url(#paint7_linear_83_151)"/>
<path d="M1447.5 217.787C1440.74 217.78 1434.26 215.096 1429.48 210.325C1424.7 205.554 1422.01 199.085 1422 192.338C1422.01 185.591 1424.7 179.122 1429.48 174.351C1434.26 169.58 1440.74 166.896 1447.5 166.889C1454.27 166.896 1460.75 169.58 1465.53 174.351C1470.31 179.122 1473 185.591 1473.01 192.338C1473 199.085 1470.31 205.554 1465.53 210.325C1460.75 215.096 1454.27 217.78 1447.5 217.787ZM1447.5 169.102C1441.33 169.107 1435.41 171.557 1431.04 175.913C1426.68 180.27 1424.22 186.176 1424.21 192.338C1424.22 198.498 1426.67 204.404 1431.04 208.76C1435.4 213.116 1441.32 215.567 1447.5 215.574C1453.67 215.567 1459.59 213.116 1463.95 208.76C1468.32 204.404 1470.78 198.498 1470.78 192.338C1470.78 186.179 1468.32 180.274 1463.96 175.918C1459.59 171.563 1453.68 169.111 1447.5 169.102Z" fill="#6A1AB7"/>
<path d="M736.504 337.681C729.742 337.674 723.26 334.99 718.478 330.219C713.697 325.448 711.008 318.979 711 312.232C711.008 305.485 713.697 299.016 718.478 294.245C723.26 289.474 729.742 286.79 736.504 286.783C743.266 286.79 749.749 289.474 754.53 294.245C759.311 299.016 762.001 305.485 762.008 312.232C762.001 318.979 759.311 325.448 754.53 330.219C749.749 334.99 743.266 337.674 736.504 337.681ZM736.504 288.996C730.329 289.001 724.409 291.451 720.042 295.807C715.675 300.164 713.218 306.07 713.211 312.232C713.218 318.392 715.674 324.298 720.039 328.654C724.405 333.01 730.323 335.461 736.497 335.468C742.671 335.461 748.589 333.01 752.955 328.654C757.32 324.298 759.776 318.392 759.784 312.232C759.776 306.073 757.321 300.168 752.957 295.812C748.593 291.457 742.677 289.005 736.504 288.996Z" fill="#6A1AB7"/>
<defs>
<filter id="filter0_f_83_151" x="-275" y="-43.5855" width="828.915" height="627.268" filterUnits="userSpaceOnUse" color-interpolation-filters="sRGB">
<feFlood flood-opacity="0" result="BackgroundImageFix"/>
<feBlend mode="normal" in="SourceGraphic" in2="BackgroundImageFix" result="shape"/>
<feGaussianBlur stdDeviation="75" result="effect1_foregroundBlur_83_151"/>
</filter>
<filter id="filter1_f_83_151" x="1082" y="409" width="615.582" height="495.267" filterUnits="userSpaceOnUse" color-interpolation-filters="sRGB">
<feFlood flood-opacity="0" result="BackgroundImageFix"/>
<feBlend mode="normal" in="SourceGraphic" in2="BackgroundImageFix" result="shape"/>
<feGaussianBlur stdDeviation="75" result="effect1_foregroundBlur_83_151"/>
</filter>
<filter id="filter2_f_83_151" x="1467.01" y="-109" width="477.988" height="410.131" filterUnits="userSpaceOnUse" color-interpolation-filters="sRGB">
<feFlood flood-opacity="0" result="BackgroundImageFix"/>
<feBlend mode="normal" in="SourceGraphic" in2="BackgroundImageFix" result="shape"/>
<feGaussianBlur stdDeviation="75" result="effect1_foregroundBlur_83_151"/>
</filter>
<linearGradient id="paint0_linear_83_151" x1="1027" y1="510.585" x2="991.441" y2="558.573" gradientUnits="userSpaceOnUse">
<stop stop-color="#E250E5"/>
<stop offset="1" stop-color="#4B50E6"/>
</linearGradient>
<radialGradient id="paint1_radial_83_151" cx="0" cy="0" r="1" gradientUnits="userSpaceOnUse" gradientTransform="translate(180.659 285.463) rotate(34.1621) scale(179.488 167.508)">
<stop stop-color="#2B1867"/>
<stop offset="0.487063" stop-color="#382383"/>
<stop offset="0.781641" stop-color="#452896"/>
<stop offset="1" stop-color="#76248E"/>
</radialGradient>
<linearGradient id="paint2_linear_83_151" x1="1325.76" y1="605.694" x2="1420.02" y2="772.775" gradientUnits="userSpaceOnUse">
<stop stop-color="#2B1867"/>
<stop offset="0.487063" stop-color="#382383"/>
<stop offset="0.781641" stop-color="#452896"/>
<stop offset="1" stop-color="#76248E"/>
</linearGradient>
<linearGradient id="paint3_linear_83_151" x1="52.8805" y1="26.3356" x2="106.043" y2="120.569" gradientUnits="userSpaceOnUse">
<stop stop-color="#2B1867"/>
<stop offset="0.487063" stop-color="#3F298D"/>
<stop offset="0.781641" stop-color="#453D9A"/>
<stop offset="1" stop-color="#5D6AA7"/>
</linearGradient>
<linearGradient id="paint4_linear_83_151" x1="1521.5" y1="287" x2="1471.12" y2="354.983" gradientUnits="userSpaceOnUse">
<stop stop-color="#E250E5"/>
<stop offset="1" stop-color="#4B50E6"/>
</linearGradient>
<linearGradient id="paint5_linear_83_151" x1="577.25" y1="571.531" x2="560.952" y2="593.526" gradientUnits="userSpaceOnUse">
<stop stop-color="#E250E5"/>
<stop offset="1" stop-color="#4B50E6"/>
</linearGradient>
<linearGradient id="paint6_linear_83_151" x1="1424" y1="538.562" x2="1400.29" y2="570.554" gradientUnits="userSpaceOnUse">
<stop stop-color="#E250E5"/>
<stop offset="1" stop-color="#4B50E6"/>
</linearGradient>
<linearGradient id="paint7_linear_83_151" x1="1084" y1="256.809" x2="1072.15" y2="272.805" gradientUnits="userSpaceOnUse">
<stop stop-color="#E250E5"/>
<stop offset="1" stop-color="#4B50E6"/>
</linearGradient>
</defs>
</svg>
